<svg width="32" height="32" viewBox="0 0 32 32" fill="none" xmlns="http://www.w3.org/2000/svg">
<circle cx="16" cy="16" r="15.5" fill="#0077BA" stroke="#0077BA"/>
<path d="M9.11719 10.625V22H7.15625V10.625H9.11719ZM15.9531 10.625L11.3438 16.1016L8.71875 18.8828L8.375 16.9375L10.25 14.625L13.5625 10.625H15.9531ZM13.8438 22L10.1016 16.6094L11.4531 15.2734L16.1719 22H13.8438ZM21.9453 18.5859V10.625H23.8984V18.5859C23.8984 19.3411 23.737 19.9844 23.4141 20.5156C23.0911 21.0469 22.651 21.4531 22.0938 21.7344C21.5365 22.0156 20.9036 22.1562 20.1953 22.1562C19.4714 22.1562 18.8281 22.0339 18.2656 21.7891C17.7083 21.5443 17.2708 21.1693 16.9531 20.6641C16.6354 20.1589 16.4766 19.5182 16.4766 18.7422H18.4453C18.4453 19.1901 18.5156 19.5521 18.6562 19.8281C18.8021 20.099 19.0052 20.2969 19.2656 20.4219C19.5312 20.5417 19.8411 20.6016 20.1953 20.6016C20.5339 20.6016 20.8333 20.526 21.0938 20.375C21.3594 20.2188 21.5677 19.9922 21.7188 19.6953C21.8698 19.3932 21.9453 19.0234 21.9453 18.5859Z" fill="white"/>
</svg>
