<svg width="34" height="34" viewBox="0 0 34 34" fill="none" xmlns="http://www.w3.org/2000/svg">
<path d="M16.9999 29.3929C23.8444 29.3929 29.3929 23.8444 29.3929 16.9999C29.3929 10.1555 23.8444 4.60693 16.9999 4.60693C10.1555 4.60693 4.60693 10.1555 4.60693 16.9999C4.60693 23.8444 10.1555 29.3929 16.9999 29.3929Z" stroke-width="2" stroke-linecap="round" stroke-linejoin="round"/>
<path d="M13.7019 12.4439C14.3251 10.691 16.1193 9.64068 17.9529 9.95538C19.7866 10.2701 21.1278 11.8585 21.1309 13.7189C21.1309 16.2689 17.3059 17.5439 17.3059 17.5439" stroke-width="2" stroke-linecap="round" stroke-linejoin="round"/>
<path d="M16.779 25.6191C17.7179 25.6191 18.479 24.858 18.479 23.9191C18.479 22.9802 17.7179 22.2191 16.779 22.2191C15.8401 22.2191 15.079 22.9802 15.079 23.9191C15.079 24.858 15.8401 25.6191 16.779 25.6191Z" fill="#2F2F2E"/>
<path d="M16.7789 17.5441V19.4481" stroke-width="2" stroke-linecap="round" stroke-linejoin="round"/>
</svg>
